<svg width="512" height="512" xmlns="http://www.w3.org/2000/svg">

 <g>
  <title>background</title>
  <rect fill="none" id="canvas_background" height="402" width="582" y="-1" x="-1"/>
 </g>
 <g>
  <title>Layer 1</title>
  <path stroke="null" id="svg_1" d="m500.840472,390.092996c-15.261321,-23.22726 -66.604366,-37.67515 -117.366161,-58.318449c-50.795225,-20.647505 -62.835406,-27.805195 -62.835406,-27.805195l-0.479882,-47.516711c0,0 19.029203,-14.257537 24.939837,-58.971538c11.873032,3.363252 24.392017,-17.311597 25.05846,-28.210089c0.673991,-10.495701 -1.626206,-39.608126 -16.155303,-36.679216c2.969876,-21.922133 5.112629,-41.631546 4.059046,-52.063095c-3.76896,-38.170489 -42.30509,-78.431704 -101.564568,-78.431704c-59.257321,0 -97.809627,40.261215 -101.57643,78.431704c-1.054662,10.431549 1.098876,30.142013 4.052575,52.063095c-14.509686,-2.928911 -16.808806,26.183514 -16.153147,36.679216c0.684775,10.898492 13.151998,31.572289 25.077871,28.210089c5.890145,44.714001 24.934445,58.971538 24.934445,58.971538l-0.475568,47.516711c0,0 -12.054201,7.158741 -62.835406,27.805195c-50.796303,20.643299 -102.10484,35.091189 -117.383415,58.318449c-13.695505,20.798946 -9.578226,120.81099 -9.578226,120.81099l507.861662,0c-0.001078,0 4.117278,-100.012044 -9.580383,-120.81099z" fill="#666666"/>
 </g>
</svg>